<svg width="48" height="33" viewBox="0 0 48 33" fill="none" xmlns="http://www.w3.org/2000/svg">
<path d="M45.65 10.7733C46.212 7.97205 48 5.16617 48 5.16617H39.976C35.474 1.78936 30.014 0 23.95 0C17.67 0 11.994 1.81025 7.522 5.22419H0C0 5.22419 1.77 7.9767 2.34 10.7617C0.876 13.0988 0.00599998 15.9186 0.00599998 19.0169C0.00599998 26.7128 5.4 32.9604 12.03 32.9604C15.812 32.9604 19.172 30.9065 21.392 27.7293L23.942 32.176L26.524 27.6829C27.664 29.391 29.164 30.7835 30.934 31.7211C33.844 33.2529 37.118 33.4293 40.118 32.1389C46.33 29.4606 49.51 21.4143 47.23 14.2081C46.812 12.9177 46.27 11.7689 45.61 10.7617L45.65 10.7733V10.7733ZM39.308 29.507C36.908 30.5398 34.298 30.4238 31.968 29.1752C30.32 28.2863 28.962 26.8961 27.992 25.1671C27.59 24.4732 27.242 23.7212 26.986 22.9136C26.694 21.9968 26.546 21.0499 26.468 20.0938C26.32 18.1628 26.558 16.211 27.278 14.4008C28.358 11.6993 30.28 9.64073 32.68 8.60796C37.66 6.48672 43.18 9.44578 45.012 15.2014C46.844 20.9594 44.292 27.3742 39.342 29.5047H39.308V29.507ZM19.972 25.2506C18.246 28.2004 15.328 30.1546 12.026 30.1546C6.734 30.1546 2.424 25.1508 2.424 19.0215C2.424 12.8922 6.736 7.8769 12.026 7.8769C17.316 7.8769 21.622 12.8922 21.622 19.0215C21.622 19.4021 21.562 19.7503 21.526 20.1332C21.364 22.0154 20.844 23.7908 19.972 25.2878V25.2506V25.2506ZM5.928 18.8753C5.928 22.6838 8.6 25.7705 11.87 25.7705C15.14 25.7705 17.806 22.6838 17.806 18.8753C17.806 15.0808 15.14 11.9964 11.874 11.9964C8.602 11.9964 5.932 15.0808 5.932 18.8753H5.928ZM30.024 18.8753C30.024 22.6838 32.682 25.7705 35.96 25.7705C39.232 25.7705 41.89 22.6838 41.89 18.8753C41.89 15.0808 39.232 11.9964 35.96 11.9964C32.69 11.9964 30.018 15.0808 30.018 18.8753H30.024ZM7.98 18.8753C7.98 16.3897 9.718 14.3659 11.852 14.3659C13.98 14.3659 15.75 16.392 15.75 18.8753C15.75 21.3725 14.012 23.4033 11.852 23.4033C9.69 23.4033 7.95 21.3725 7.95 18.8753H7.98V18.8753ZM32.046 18.8753C32.046 16.3897 33.784 14.3659 35.944 14.3659C38.076 14.3659 39.818 16.392 39.818 18.8753C39.818 21.3725 38.078 23.4033 35.914 23.4033C33.756 23.4033 32.016 21.3725 32.016 18.8753H32.046ZM23.94 2.43687C28.262 2.43687 32.162 3.33968 35.584 5.13368C34.294 5.17545 33.034 5.43771 31.772 5.96918C28.742 7.25724 26.342 9.83336 25.022 13.2218C24.392 14.7535 24.062 16.3758 23.94 18.0143C23.49 10.8754 18.42 5.21491 12.178 5.06869C15.6 3.3652 19.562 2.43687 23.852 2.43687H23.94Z" fill="white"/>
</svg>
